<svg width="24" height="24" viewBox="0 0 24 24" fill="none" xmlns="http://www.w3.org/2000/svg">
<path d="M8.35714 5.35543C8.35725 4.66246 8.55501 3.9839 8.92722 3.39938C9.29942 2.81486 9.83063 2.34863 10.4585 2.05539C11.0864 1.76216 11.7848 1.65409 12.472 1.74388C13.1591 1.83366 13.8064 2.11756 14.3378 2.56228C14.8692 3.00699 15.2628 3.59406 15.4723 4.25459C15.6819 4.91512 15.6986 5.62172 15.5207 6.29145C15.3428 6.96118 14.9775 7.56626 14.4677 8.03569C13.958 8.50513 13.3249 8.81943 12.6428 8.94171V11.5714H16.5C17.0115 11.5714 17.502 11.7746 17.8637 12.1363C18.2254 12.498 18.4286 12.9885 18.4286 13.5V15.0566C19.3248 15.2172 20.1284 15.7076 20.6812 16.4311C21.2339 17.1546 21.4957 18.0589 21.4151 18.9658C21.3345 19.8728 20.9172 20.7166 20.2455 21.3313C19.5737 21.946 18.6962 22.2868 17.7857 22.2868C16.8752 22.2868 15.9977 21.946 15.3259 21.3313C14.6542 20.7166 14.2369 19.8728 14.1563 18.9658C14.0757 18.0589 14.3375 17.1546 14.8903 16.4311C15.443 15.7076 16.2466 15.2172 17.1428 15.0566V13.5C17.1428 13.3295 17.0751 13.166 16.9546 13.0454C16.834 12.9249 16.6705 12.8571 16.5 12.8571H7.49999C7.3295 12.8571 7.16598 12.9249 7.04542 13.0454C6.92487 13.166 6.85714 13.3295 6.85714 13.5V15.0566C7.75336 15.2172 8.55697 15.7076 9.10972 16.4311C9.66248 17.1546 9.92431 18.0589 9.84368 18.9658C9.76304 19.8728 9.34577 20.7166 8.67404 21.3313C8.00231 21.946 7.12479 22.2868 6.21428 22.2868C5.30377 22.2868 4.42625 21.946 3.75452 21.3313C3.08279 20.7166 2.66552 19.8728 2.58488 18.9658C2.50424 18.0589 2.76608 17.1546 3.31883 16.4311C3.87158 15.7076 4.67519 15.2172 5.57142 15.0566V13.5C5.57142 12.9885 5.77461 12.498 6.13629 12.1363C6.49796 11.7746 6.9885 11.5714 7.49999 11.5714H11.3571V8.94171C10.5159 8.79072 9.75446 8.34879 9.20606 7.69321C8.65765 7.03764 8.35716 6.21014 8.35714 5.35543Z" fill="black"/>
</svg>
